<svg width="34" height="34" viewBox="0 0 34 34" fill="none" xmlns="http://www.w3.org/2000/svg">
<g clip-path="url(#clip0_105_484)">
<path d="M33.4754 17C33.4754 7.90239 26.0976 0.524658 17 0.524658C7.90233 0.524658 0.524597 7.90239 0.524597 17C0.524597 26.0977 7.90233 33.4754 17 33.4754C26.0976 33.4754 33.4754 26.0977 33.4754 17Z" fill="#FACBA9"/>
<path d="M18.9258 17L23.7403 11.4086C24.2649 10.7977 24.1985 9.88125 23.5875 9.35C22.9766 8.82539 22.0602 8.8918 21.5356 9.50274L17 14.7688L12.4711 9.50938C11.9465 8.89844 11.0235 8.83203 10.4125 9.35664C9.80159 9.88125 9.73518 10.8043 10.2598 11.4152L15.0742 17L10.2598 22.5914C9.73518 23.2023 9.80159 24.1188 10.4125 24.65C10.6848 24.8891 11.0235 25.002 11.3621 25.002C11.7739 25.002 12.1789 24.8293 12.4645 24.4973L16.9934 19.2379L21.5223 24.4973C21.8078 24.8293 22.2196 25.002 22.6246 25.002C22.9633 25.002 23.302 24.8891 23.5742 24.65C24.1852 24.1254 24.2516 23.2023 23.727 22.5914L18.9258 17Z" fill="#0F0D0D"/>
</g>
<defs>
<clipPath id="clip0_105_484">
<rect width="34" height="34" fill="white"/>
</clipPath>
</defs>
</svg>
