<svg width="1279" height="631" viewBox="0 0 1279 631" fill="none" xmlns="http://www.w3.org/2000/svg">
<g style="mix-blend-mode:multiply">
<path d="M892.547 231.11C892.547 358.749 996.018 462.221 1123.66 462.221C1251.3 462.221 1354.77 358.749 1354.77 231.11C1354.77 103.472 1251.3 0 1123.66 0C996.018 0 892.547 103.472 892.547 231.11ZM1288.26 231.11C1288.26 322.02 1214.57 395.716 1123.66 395.716C1032.75 395.716 959.052 322.02 959.052 231.11C959.052 140.201 1032.75 66.5049 1123.66 66.5049C1214.57 66.5049 1288.26 140.201 1288.26 231.11Z" fill="url(#paint0_radial_105_667)"/>
</g>
<g style="mix-blend-mode:multiply">
<path d="M342.221 399.335C342.221 271.697 238.749 168.225 111.11 168.225C-16.5283 168.225 -120 271.697 -120 399.335C-120 526.974 -16.5283 630.446 111.11 630.446C238.749 630.446 342.221 526.974 342.221 399.335ZM-53.4951 399.335C-53.4951 308.426 20.2013 234.73 111.11 234.73C202.02 234.73 275.716 308.426 275.716 399.335C275.716 490.244 202.02 563.941 111.11 563.941C20.2013 563.941 -53.4951 490.244 -53.4951 399.335Z" fill="url(#paint1_radial_105_667)"/>
</g>
<defs>
<radialGradient id="paint0_radial_105_667" cx="0" cy="0" r="1" gradientUnits="userSpaceOnUse" gradientTransform="translate(1205.56 126.049) rotate(131.769) scale(319.202)">
<stop stop-color="#F7911E"/>
<stop offset="0.0001" stop-color="#F5B177" stop-opacity="0.520208"/>
<stop offset="1" stop-color="#F2CFCD" stop-opacity="0.06"/>
</radialGradient>
<radialGradient id="paint1_radial_105_667" cx="0" cy="0" r="1" gradientUnits="userSpaceOnUse" gradientTransform="translate(29.21 504.397) rotate(-48.231) scale(319.202)">
<stop stop-color="#F7911E"/>
<stop offset="0.0001" stop-color="#F5B177" stop-opacity="0.520208"/>
<stop offset="1" stop-color="#F2CFCD" stop-opacity="0.06"/>
</radialGradient>
</defs>
</svg>
