<svg width="24" height="17" viewBox="0 0 24 17" fill="none" xmlns="http://www.w3.org/2000/svg">
<path d="M0.224609 5.70898H23.2246V11.709H0.224609V5.70898Z" fill="#E6E7E8"/>
<path d="M19.6309 0.708984H3.81836C1.43678 0.708984 0.224609 2.35065 0.224609 4.37565V5.70898H23.2246V4.37565C23.2246 2.35065 22.0124 0.708984 19.6309 0.708984Z" fill="#FF9933"/>
<path d="M0.224609 13.0423C0.224609 15.0673 1.43678 16.709 3.81836 16.709H19.6309C22.0124 16.709 23.2246 15.0673 23.2246 13.0423V11.709H0.224609V13.0423Z" fill="#128807"/>
<path fill-rule="evenodd" clip-rule="evenodd" d="M11.8345 6.30884C12.2937 6.30884 12.7425 6.44504 13.1243 6.70022C13.506 6.9554 13.8035 7.31808 13.979 7.74237C14.1546 8.16665 14.2003 8.63348 14.1105 9.08378C14.0207 9.53408 13.7993 9.94761 13.4743 10.272C13.1494 10.5965 12.7355 10.8172 12.2851 10.9064C11.8346 10.9955 11.3679 10.949 10.9439 10.7728C10.5199 10.5966 10.1576 10.2986 9.90306 9.91646C9.64847 9.53432 9.51296 9.08526 9.51367 8.62609C9.51472 8.01121 9.75969 7.42188 10.1948 6.98743C10.6299 6.55299 11.2196 6.30893 11.8345 6.30884ZM10.2874 7.31329C10.3273 7.35857 10.3345 7.40709 10.3079 7.4477C10.2966 7.4664 10.2792 7.48062 10.2587 7.48795C10.2429 7.49382 10.2259 7.49577 10.2092 7.49364C10.1925 7.49152 10.1765 7.48537 10.1627 7.47573C10.1002 7.56518 10.0453 7.65966 9.99847 7.7582C10.0527 7.79378 10.0707 7.83834 10.0527 7.88757C10.0431 7.91263 10.0241 7.93296 9.99976 7.94423C9.9754 7.9555 9.94761 7.95684 9.92228 7.94795C9.89641 7.9997 9.83927 8.2182 9.83855 8.2642C9.86235 8.26875 9.88375 8.28161 9.89892 8.30049C9.91496 8.31924 9.92319 8.34342 9.92193 8.36806C9.9151 8.43562 9.87341 8.46437 9.8098 8.46688C9.79974 8.53193 9.80082 8.74971 9.81088 8.79248C9.87844 8.79967 9.91402 8.82913 9.91977 8.88053C9.92768 8.93587 9.90108 8.97181 9.83639 8.99696C9.8558 9.1037 9.88347 9.20863 9.91977 9.31142C9.9451 9.30376 9.97225 9.30465 9.99703 9.31393C10.0211 9.32435 10.0402 9.34232 10.0502 9.36712C10.0592 9.38652 10.061 9.40665 10.0563 9.42785C10.053 9.44361 10.046 9.45837 10.036 9.47097C10.0259 9.48357 10.0131 9.49366 9.99847 9.50045C10.0466 9.60035 10.0998 9.69451 10.1627 9.78292C10.2188 9.75524 10.2676 9.76171 10.3007 9.80124C10.3153 9.81748 10.3235 9.83838 10.3241 9.86018C10.3252 9.87629 10.3224 9.89243 10.3159 9.9072C10.3093 9.92198 10.2993 9.93495 10.2867 9.94499C10.3586 10.0291 10.4351 10.106 10.5185 10.1768C10.5656 10.1355 10.6144 10.129 10.6565 10.1585C10.6755 10.1718 10.6888 10.1894 10.6949 10.2109C10.6993 10.2262 10.7002 10.2423 10.6976 10.2579C10.695 10.2736 10.6889 10.2885 10.6798 10.3015C10.7708 10.364 10.8646 10.4179 10.9627 10.4647C11.0008 10.4111 11.0443 10.3931 11.0913 10.4111C11.1118 10.4185 11.1296 10.4319 11.1424 10.4496C11.1603 10.4783 11.1628 10.5099 11.1524 10.5437C11.2559 10.5804 11.3601 10.6084 11.468 10.6274C11.4892 10.5667 11.5258 10.5383 11.5747 10.5419C11.5973 10.5437 11.6178 10.5505 11.6358 10.566C11.6609 10.589 11.6728 10.6181 11.6706 10.654C11.7813 10.6619 11.8895 10.6627 11.997 10.654C12.0049 10.5847 12.0325 10.5498 12.0882 10.5419C12.1094 10.539 12.1309 10.5433 12.1493 10.5541C12.1628 10.5617 12.1744 10.5723 12.1832 10.585C12.192 10.5977 12.1979 10.6122 12.2004 10.6274C12.3089 10.6073 12.4142 10.5797 12.5159 10.5434C12.5069 10.4754 12.5234 10.4348 12.5691 10.4136C12.5857 10.4065 12.6039 10.4036 12.6219 10.4054C12.6406 10.4068 12.6575 10.4125 12.6711 10.4248C12.6844 10.4359 12.6956 10.4496 12.7085 10.4636C12.8065 10.4173 12.9005 10.3631 12.9895 10.3015C12.9529 10.244 12.9745 10.189 13.0043 10.1646C13.0147 10.1557 13.0268 10.1489 13.0398 10.1447C13.0528 10.1405 13.0666 10.1389 13.0802 10.1401C13.0939 10.1413 13.1072 10.1452 13.1193 10.1515C13.1314 10.1579 13.1422 10.1666 13.1509 10.1772C13.2339 10.106 13.3119 10.0287 13.3816 9.94571C13.341 9.89935 13.3331 9.85048 13.3629 9.80843C13.375 9.78959 13.3935 9.77579 13.4151 9.76962C13.4304 9.76475 13.4466 9.76349 13.4625 9.76592C13.4784 9.76835 13.4935 9.77441 13.5067 9.78363C13.5696 9.69307 13.6242 9.59928 13.6709 9.50081C13.6185 9.46559 13.5994 9.42426 13.6152 9.37718C13.621 9.35625 13.6336 9.33788 13.6512 9.32507C13.6651 9.31533 13.6811 9.30896 13.698 9.30647C13.7148 9.30397 13.732 9.30542 13.7482 9.3107C13.7715 9.26003 13.8298 9.04656 13.833 8.99481C13.8081 8.99028 13.7857 8.97703 13.7698 8.95743C13.7614 8.94773 13.7551 8.9364 13.7513 8.92415C13.7476 8.9119 13.7464 8.89901 13.7478 8.88628C13.7492 8.86351 13.7586 8.84198 13.7744 8.82554C13.7852 8.81415 13.7985 8.80532 13.8132 8.79972C13.8278 8.79413 13.8436 8.7919 13.8592 8.7932C13.8682 8.68449 13.8682 8.57523 13.8592 8.46653C13.7906 8.4597 13.7579 8.4331 13.7489 8.37884C13.7449 8.35832 13.7479 8.33703 13.7575 8.31846C13.7649 8.3041 13.7756 8.29166 13.7886 8.28212C13.8016 8.27258 13.8167 8.2662 13.8326 8.26348C13.8138 8.15611 13.7858 8.05055 13.7489 7.94795C13.6824 7.95909 13.6415 7.94112 13.6195 7.89512C13.6138 7.88282 13.6107 7.86951 13.6102 7.85597C13.6097 7.84243 13.6119 7.82892 13.6167 7.81624C13.6215 7.80357 13.6287 7.79197 13.638 7.78212C13.6473 7.77228 13.6585 7.76439 13.6709 7.75892C13.6244 7.66012 13.5694 7.5655 13.5067 7.47609C13.4488 7.50376 13.4018 7.49729 13.3687 7.45776C13.354 7.44106 13.3458 7.41962 13.3457 7.39738C13.345 7.38159 13.348 7.36586 13.3545 7.35144C13.361 7.33703 13.3708 7.32433 13.3831 7.31437C13.3121 7.2313 13.2348 7.1538 13.152 7.08257C13.1024 7.12498 13.0542 7.13037 13.0133 7.1009C12.9947 7.08849 12.9811 7.06991 12.9748 7.04843C12.9703 7.03335 12.9694 7.01745 12.972 7.00194C12.9746 6.98643 12.9807 6.97172 12.9899 6.95895C12.9003 6.8965 12.8057 6.84156 12.7071 6.79471C12.6701 6.8479 12.6284 6.86551 12.5813 6.8497C12.5604 6.84303 12.5422 6.82995 12.5292 6.81232C12.5197 6.7983 12.5137 6.78224 12.5115 6.76545C12.5094 6.74865 12.5113 6.73159 12.517 6.71565C12.4144 6.67857 12.3089 6.65056 12.2014 6.63192C12.181 6.69013 12.1439 6.72032 12.0961 6.71745C12.0738 6.71673 12.0523 6.70864 12.035 6.69445C12.0222 6.68364 12.0122 6.66988 12.0059 6.65436C11.9996 6.63884 11.9971 6.62201 11.9988 6.60532C11.8902 6.5961 11.781 6.59622 11.6724 6.60568C11.6649 6.67037 11.6369 6.70738 11.5891 6.71529C11.5676 6.71988 11.5452 6.71709 11.5255 6.70738C11.5108 6.70011 11.498 6.68944 11.4883 6.67625C11.4785 6.66307 11.472 6.64774 11.4694 6.63156C11.362 6.65109 11.2563 6.67934 11.1535 6.71601C11.165 6.77962 11.147 6.82131 11.1032 6.84395C11.0841 6.85365 11.064 6.8576 11.0417 6.85365C11.025 6.85137 11.0091 6.84477 10.9957 6.83449C10.9823 6.82422 10.9718 6.81064 10.9652 6.79507C10.9037 6.81807 10.7082 6.93128 10.6824 6.95967C10.709 7.01285 10.7028 7.05993 10.6662 7.09371C10.6558 7.10286 10.6437 7.10984 10.6306 7.11422C10.6175 7.11861 10.6037 7.12031 10.5899 7.11924C10.5761 7.11817 10.5627 7.11434 10.5504 7.10798C10.5382 7.10162 10.5273 7.09285 10.5185 7.08221C10.4356 7.1531 10.3583 7.23036 10.2874 7.31329Z" fill="#3C3BCB"/>
<path fill-rule="evenodd" clip-rule="evenodd" d="M12.8308 10.3498C12.8265 10.3451 12.8222 10.3419 12.819 10.3368C12.61 10.0174 12.4005 9.69843 12.1904 9.37981C12.1857 9.37082 12.1803 9.36184 12.176 9.35177C12.1272 9.23785 12.0794 9.12393 12.0294 9.01037C12.0277 9.00452 12.0254 8.99886 12.0226 8.99348C12.0025 9.00103 11.9841 9.00965 11.9626 9.01792L11.9697 9.03624C12.0147 9.14657 12.0578 9.25726 12.1034 9.36759C12.1157 9.39706 12.1207 9.42796 12.1272 9.45887C12.1624 9.62382 12.1954 9.78949 12.231 9.95481L12.3525 10.5453C12.3531 10.5467 12.3533 10.5482 12.3531 10.5497C12.3529 10.5512 12.3523 10.5527 12.3514 10.5539L12.3464 10.5413C12.2479 10.2398 12.1469 9.93864 12.0481 9.63712C12.0283 9.57818 12.0107 9.51996 11.9892 9.46102C11.9791 9.43156 11.9759 9.40137 11.9712 9.37082C11.9586 9.28529 11.9478 9.19904 11.9338 9.11351C11.932 9.09303 11.9288 9.0729 11.9259 9.05314C11.925 9.04492 11.9237 9.03677 11.922 9.0287C11.9004 9.03085 11.8806 9.03373 11.8591 9.03624C11.8591 9.04487 11.8598 9.05385 11.8605 9.06284C11.8731 9.16813 11.8839 9.27379 11.899 9.37873C11.9069 9.43623 11.9029 9.49265 11.8997 9.55015C11.8975 9.59867 11.8943 9.64718 11.8921 9.69606C11.8857 9.79452 11.8806 9.89263 11.8738 9.99074L11.863 10.1934C11.8569 10.3084 11.8497 10.4231 11.8436 10.5374C11.8407 10.5697 11.84 10.6028 11.8368 10.6344L11.8282 10.5255L11.817 10.2897L11.8041 10.0795C11.8005 10.0076 11.7958 9.93612 11.7919 9.86424C11.7886 9.81717 11.7868 9.77009 11.784 9.72373C11.78 9.64934 11.7753 9.57495 11.7717 9.50127C11.7682 9.462 11.7692 9.42245 11.7746 9.3834C11.7822 9.33021 11.7879 9.27595 11.7944 9.22204C11.8016 9.16885 11.8077 9.11531 11.8141 9.06284C11.8149 9.05457 11.8149 9.04595 11.8159 9.03624L11.753 9.02798C11.7513 9.04235 11.748 9.05637 11.7455 9.07074C11.7306 9.18053 11.7152 9.29026 11.6995 9.39993C11.6952 9.4427 11.6783 9.48223 11.6639 9.52212C11.5532 9.85921 11.4422 10.1967 11.3301 10.5334C11.3275 10.5395 11.3265 10.5453 11.3218 10.551C11.3218 10.5467 11.3218 10.5435 11.3236 10.5395C11.37 10.3124 11.4167 10.0849 11.4648 9.85778C11.4957 9.70684 11.5277 9.55626 11.5583 9.40568L11.5669 9.38088C11.6133 9.26696 11.6578 9.15196 11.7053 9.03804C11.7069 9.03132 11.7093 9.02481 11.7124 9.01863C11.6926 9.01015 11.6728 9.00189 11.6528 8.99384C11.6503 9.00031 11.6463 9.0057 11.6442 9.01217C11.5946 9.12645 11.546 9.24109 11.4965 9.35537C11.4934 9.36396 11.4895 9.37225 11.485 9.38017C11.2729 9.7014 11.0615 10.023 10.8507 10.3451C10.8478 10.3499 10.844 10.3542 10.8395 10.3577C10.8413 10.3519 10.8445 10.3472 10.8467 10.3422L11.3664 9.31188C11.3708 9.30253 11.3764 9.29373 11.3829 9.28565L11.605 8.98773C11.6097 8.9827 11.6125 8.97803 11.6168 8.97263C11.5985 8.95934 11.5838 8.94712 11.5655 8.9331C11.5615 8.93778 11.5579 8.94173 11.5547 8.9464C11.477 9.04379 11.4005 9.1419 11.3247 9.23893C11.316 9.24792 11.3081 9.25726 11.2984 9.26553C11.0153 9.51888 10.7321 9.77081 10.4478 10.0245C10.442 10.0292 10.4363 10.0342 10.4291 10.0375C10.4323 10.0342 10.4341 10.0303 10.4363 10.0278C10.6695 9.76721 10.901 9.50703 11.1331 9.24648C11.1464 9.2321 11.1597 9.21773 11.1723 9.20227C11.1989 9.17137 11.2287 9.14406 11.2611 9.11962L11.5191 8.91657C11.5248 8.91226 11.5292 8.90759 11.5356 8.90328C11.5229 8.88606 11.5097 8.86916 11.4961 8.8526C11.4903 8.8562 11.4857 8.85979 11.4803 8.86374C11.3815 8.93777 11.2823 9.01109 11.1834 9.08548C11.1724 9.09382 11.1606 9.10116 11.1482 9.1074C10.8108 9.27774 10.4715 9.44809 10.1333 9.61843C10.1269 9.62131 10.1208 9.6249 10.1132 9.6249L10.1269 9.6152L10.7579 9.20192C10.8679 9.12968 10.9782 9.05745 11.0875 8.98485C11.0968 8.97946 11.1065 8.97479 11.1148 8.97048C11.2294 8.92196 11.3437 8.87309 11.4573 8.82421C11.4627 8.82206 11.4681 8.8199 11.4745 8.81667L11.4505 8.75737C11.4436 8.75917 11.4393 8.76096 11.4339 8.76276C11.3175 8.80912 11.2021 8.8562 11.085 8.9022C11.0609 8.91118 11.0347 8.91549 11.0091 8.92088L10.2239 9.08404C10.1251 9.10524 10.0245 9.12609 9.92527 9.14657C9.92127 9.14752 9.91706 9.14701 9.91341 9.14513C9.94072 9.13651 9.96803 9.12681 9.99498 9.11782C10.3342 9.00606 10.6731 8.89465 11.0113 8.78217C11.0379 8.77318 11.0663 8.77067 11.0932 8.76635C11.2025 8.75126 11.3114 8.73545 11.4195 8.71999C11.4262 8.71883 11.4328 8.71739 11.4393 8.71568C11.4372 8.69484 11.4339 8.67399 11.4321 8.65243L11.3797 8.65818L11.1626 8.68442C11.122 8.68981 11.0817 8.69412 11.0418 8.69915C11.0321 8.70023 11.0228 8.70059 11.0135 8.70023L10.7849 8.68693L10.6498 8.67938L10.4169 8.66573L10.0773 8.64704C9.99534 8.64273 9.91556 8.63734 9.83398 8.63159C9.84692 8.63051 9.8613 8.62835 9.87531 8.62835L10.1538 8.61254L10.5218 8.5917L10.8266 8.57445L11.0178 8.56295C11.0253 8.56259 11.0343 8.56367 11.0418 8.56438L11.2611 8.59062L11.4163 8.60931H11.4321C11.4339 8.58882 11.4372 8.56942 11.4393 8.54713C11.426 8.54426 11.4109 8.5421 11.3976 8.53959C11.3017 8.52629 11.2064 8.51227 11.1105 8.49826C11.0906 8.49598 11.0707 8.49334 11.0508 8.49035C11.0398 8.48887 11.029 8.48634 11.0185 8.48281C10.7328 8.38901 10.4489 8.29449 10.1635 8.2007C10.0841 8.17467 10.0048 8.14831 9.92563 8.12163C9.91878 8.11982 9.91233 8.11678 9.90658 8.11265L9.95653 8.12271L10.5664 8.24957C10.7295 8.28371 10.8952 8.31749 11.0584 8.35199C11.0682 8.35416 11.0778 8.35717 11.0871 8.36098C11.2021 8.40626 11.316 8.45298 11.4321 8.49898L11.4494 8.50581C11.4573 8.48604 11.4659 8.46699 11.4745 8.44651C11.4687 8.44302 11.4625 8.44001 11.4562 8.43753C11.3419 8.38937 11.228 8.34013 11.1141 8.2909C11.1051 8.28712 11.0965 8.28267 11.0882 8.2776C10.7658 8.06665 10.4449 7.85462 10.1222 7.64331C10.1179 7.64095 10.1146 7.6373 10.1125 7.63288L10.1254 7.64007C10.4467 7.80179 10.7684 7.96351 11.0904 8.12487C11.1435 8.15146 11.1953 8.18345 11.2427 8.21974C11.3211 8.28048 11.4009 8.3387 11.4806 8.39835C11.486 8.40231 11.4907 8.4059 11.4965 8.40949L11.536 8.35954L11.522 8.34732L11.2298 8.11768C11.2197 8.10977 11.2118 8.10151 11.2032 8.09288C10.9488 7.8079 10.694 7.52256 10.4403 7.23757C10.4366 7.23463 10.4337 7.23079 10.432 7.22643C10.4395 7.22715 10.4424 7.23218 10.4456 7.23542C10.5998 7.37198 10.7525 7.50854 10.9056 7.6451L11.3017 7.99801C11.3089 8.00448 11.3157 8.01238 11.3222 8.01957L11.5489 8.30779C11.5547 8.31426 11.559 8.32109 11.5655 8.32971L11.6176 8.28982C11.6143 8.28479 11.61 8.28084 11.6075 8.27617C11.5335 8.17734 11.4598 8.07815 11.385 7.97968C11.3773 7.96809 11.3703 7.95609 11.3638 7.94374C11.1913 7.60413 11.0203 7.26309 10.8489 6.92312C10.8456 6.91665 10.8424 6.91162 10.8417 6.90479C10.8449 6.90838 10.8481 6.91162 10.8503 6.91485L11.2176 7.4762L11.4774 7.87151C11.4864 7.8866 11.4965 7.90242 11.5022 7.91895C11.5507 8.02963 11.5974 8.14068 11.6445 8.25137C11.6478 8.2564 11.6499 8.26179 11.6531 8.26826L11.7128 8.24346L11.7063 8.22837C11.6614 8.11624 11.6176 8.00412 11.5719 7.89271C11.5593 7.86432 11.5547 7.83485 11.5486 7.80538C11.5094 7.61815 11.4717 7.43056 11.4325 7.24296C11.394 7.06256 11.3574 6.88359 11.3196 6.70246C11.3189 6.70138 11.3196 6.69995 11.3211 6.69635L11.3527 6.79231C11.4655 7.1312 11.5773 7.47081 11.688 7.81042C11.6973 7.83701 11.7006 7.86612 11.7045 7.89379C11.7178 7.98795 11.7311 8.08282 11.7462 8.1777C11.7487 8.19567 11.7498 8.21363 11.7534 8.2334L11.8159 8.22549V8.20178C11.807 8.12667 11.7973 8.0512 11.7886 7.97645C11.7832 7.9326 11.7793 7.88984 11.7732 7.84707C11.7696 7.81831 11.7696 7.78922 11.7732 7.76046C11.7757 7.71159 11.7793 7.66307 11.7814 7.61456L11.799 7.32167C11.8023 7.2692 11.8034 7.21601 11.8066 7.16354C11.8113 7.09526 11.8149 7.0259 11.8188 6.95726C11.822 6.90695 11.8246 6.85627 11.8267 6.80632C11.8296 6.74702 11.8343 6.68809 11.8393 6.62915C11.8407 6.64532 11.8415 6.66185 11.8422 6.6791C11.8472 6.75134 11.8508 6.82357 11.8551 6.89617L11.8738 7.22535L11.8849 7.41007C11.8907 7.51681 11.8957 7.6239 11.9018 7.73063C11.9036 7.74681 11.9043 7.7619 11.9054 7.77771C11.9101 7.8194 11.9018 7.86073 11.8982 7.90206L11.8752 8.09037C11.8716 8.12595 11.8662 8.16152 11.8619 8.19746C11.8612 8.20609 11.8612 8.21543 11.8587 8.22585C11.881 8.22909 11.9011 8.23124 11.9234 8.23412C11.9266 8.21867 11.9281 8.20429 11.9306 8.1892C11.9478 8.0724 11.9644 7.9556 11.9809 7.83809C11.9823 7.82946 11.9859 7.82048 11.9881 7.81149C12.1052 7.46003 12.2202 7.1082 12.3367 6.75601C12.3424 6.73984 12.3467 6.72438 12.3557 6.70893C12.3548 6.71713 12.3534 6.72528 12.3518 6.73337C12.2993 6.98781 12.2447 7.24153 12.1926 7.49524C12.1692 7.6142 12.1444 7.73351 12.1196 7.85246C12.1179 7.86232 12.1147 7.87188 12.1103 7.88085L11.9715 8.22765C11.969 8.23268 11.9672 8.23807 11.9647 8.24454C11.9863 8.25281 12.0039 8.26107 12.0247 8.26934L12.033 8.25209L12.1778 7.91176C12.1836 7.90026 12.1879 7.88912 12.1954 7.87978L12.8225 6.92312C12.8265 6.91809 12.8297 6.91306 12.8358 6.90946C12.8333 6.91449 12.8315 6.91952 12.8283 6.92456L12.3126 7.94878C12.3072 7.95848 12.3018 7.96818 12.2953 7.97681C12.2206 8.07635 12.1455 8.1759 12.0718 8.27473C12.0682 8.28039 12.0643 8.2858 12.06 8.2909L12.111 8.33079C12.115 8.32651 12.1187 8.32194 12.1221 8.31713C12.1983 8.2201 12.2741 8.12271 12.3514 8.02568C12.3599 8.01477 12.3694 8.00466 12.3798 7.99549C12.6637 7.74177 12.948 7.48842 13.2322 7.23542C13.2369 7.23146 13.2401 7.22751 13.2477 7.22535L13.2383 7.23685C13.1223 7.36803 13.0062 7.49848 12.8883 7.62893C12.7482 7.78526 12.6098 7.94123 12.4707 8.09756C12.4635 8.10546 12.4549 8.11229 12.4474 8.11876L12.1552 8.3484L12.1408 8.3599C12.1545 8.37715 12.1667 8.39368 12.1811 8.41093L12.1965 8.39943L12.4959 8.17518C12.5035 8.16974 12.5114 8.1647 12.5196 8.16009C12.8646 7.98687 13.2074 7.81437 13.5503 7.64115C13.556 7.63863 13.5607 7.63648 13.5668 7.63648C13.551 7.6469 13.5363 7.65696 13.5205 7.66667C13.2103 7.87043 12.9002 8.0742 12.589 8.27796C12.5803 8.28299 12.5724 8.28803 12.5631 8.29198C12.4484 8.34157 12.3327 8.39045 12.2192 8.43968L12.2008 8.44687C12.2105 8.46699 12.2174 8.48604 12.226 8.50617L12.2425 8.50077C12.3579 8.45513 12.4725 8.40734 12.589 8.36313C12.6177 8.35163 12.6493 8.3466 12.6806 8.34013L13.21 8.23017C13.3745 8.19638 13.5377 8.16188 13.7027 8.12774C13.7178 8.12451 13.7318 8.12128 13.7476 8.1184C13.7515 8.1184 13.7551 8.11768 13.7609 8.11984L13.7106 8.13637C13.3595 8.25245 13.0094 8.36817 12.6583 8.48281C12.6317 8.49215 12.6023 8.49467 12.5746 8.49898C12.4959 8.51084 12.4183 8.52126 12.3417 8.5324C12.3137 8.53635 12.286 8.54067 12.258 8.54426L12.2375 8.54785C12.2396 8.56906 12.2429 8.58882 12.2443 8.61182L12.2986 8.60607L12.4926 8.58307C12.5412 8.57696 12.5918 8.57013 12.6425 8.56546C12.6651 8.56367 12.6881 8.56582 12.7115 8.5669C12.7607 8.56906 12.81 8.57337 12.8614 8.57552L13.1517 8.59277C13.1949 8.59529 13.238 8.59709 13.2825 8.59996L13.5787 8.61685C13.6488 8.62117 13.721 8.6244 13.7907 8.62871C13.808 8.6297 13.8253 8.63126 13.8425 8.63338L13.79 8.6377L13.5726 8.64956L13.3034 8.66537L13.1003 8.67615C13.0069 8.6819 12.9117 8.68729 12.8175 8.6934C12.7658 8.69556 12.7126 8.70059 12.6605 8.70095C12.6306 8.70167 12.5994 8.69592 12.5703 8.69268C12.5064 8.68519 12.4425 8.67753 12.3787 8.66968L12.2562 8.65495H12.2443C12.2429 8.67579 12.2396 8.69628 12.2375 8.7182C12.3642 8.73695 12.4909 8.75528 12.6177 8.77318C12.6551 8.77785 12.6878 8.79259 12.723 8.80373L13.7451 9.14118C13.7517 9.14257 13.758 9.14539 13.7634 9.14945C13.7548 9.14801 13.7465 9.14657 13.7379 9.14585L12.8502 8.96077L12.6159 8.9119C12.6084 8.90974 12.5983 8.90687 12.59 8.90292C12.4747 8.85728 12.359 8.81056 12.2429 8.7642L12.2274 8.75881C12.219 8.77849 12.2103 8.79802 12.2012 8.81738L12.2202 8.82637C12.3349 8.87524 12.4488 8.92376 12.5627 8.97299C12.5717 8.97695 12.5807 8.98162 12.59 8.98809L13.5467 9.61484C13.5514 9.61843 13.5575 9.62274 13.5614 9.62957C13.5567 9.6267 13.5514 9.6249 13.5474 9.62202L13.049 9.3719C12.875 9.28349 12.6996 9.19581 12.5239 9.1074C12.5127 9.10185 12.5022 9.09497 12.4926 9.08692C12.3938 9.01324 12.2939 8.93921 12.1951 8.86482C12.1907 8.8611 12.186 8.85773 12.1811 8.85476C12.1674 8.87129 12.1552 8.88746 12.1408 8.90471L12.1545 8.91549C12.2508 8.9924 12.3489 9.06931 12.4456 9.14585C12.4566 9.15373 12.4666 9.1629 12.4754 9.17317L13.2369 10.0252C13.24 10.0295 13.2424 10.0342 13.2441 10.0393C13.2401 10.0349 13.2348 10.0321 13.2308 10.0288C12.9451 9.77332 12.659 9.51924 12.3726 9.26409C12.3661 9.25833 12.3603 9.25181 12.3554 9.24468L12.1225 8.94784C12.1193 8.94317 12.1153 8.93885 12.1113 8.93418C12.0948 8.94784 12.0786 8.96006 12.0621 8.97443C12.0635 8.97874 12.0668 8.98342 12.0697 8.98773L12.2957 9.28888C12.3022 9.29765 12.3079 9.3069 12.313 9.31656C12.4844 9.65652 12.6554 9.99721 12.8265 10.3375C12.8293 10.3422 12.8311 10.3473 12.8319 10.3526H12.8308V10.3498Z" fill="#3C3BCB"/>
<path fill-rule="evenodd" clip-rule="evenodd" d="M12.8261 10.3496C12.8295 10.353 12.8316 10.3568 12.8343 10.3599C12.8326 10.3606 12.8326 10.3616 12.8305 10.362C12.8298 10.3572 12.8274 10.3541 12.8268 10.3496H12.8261Z" fill="#3C3BCB"/>
</svg>
