<svg width="27" height="26" viewBox="0 0 27 26" fill="none" xmlns="http://www.w3.org/2000/svg">
<path fill-rule="evenodd" clip-rule="evenodd" d="M13.4366 25.5336C20.469 25.5336 26.1699 19.8328 26.1699 12.8004C26.1699 5.76801 20.469 0.0671387 13.4366 0.0671387C6.40424 0.0671387 0.703369 5.76801 0.703369 12.8004C0.703369 19.8328 6.40424 25.5336 13.4366 25.5336ZM15.848 6.98481C15.2244 6.95555 15.0261 6.9497 13.4365 6.9497C11.8469 6.9497 11.6486 6.95731 11.025 6.98481C10.4013 7.01406 9.97773 7.11176 9.60448 7.25685C9.21392 7.40354 8.86011 7.63375 8.56778 7.9314C8.26988 8.22353 8.03963 8.57739 7.89323 8.9681C7.74814 9.34135 7.65044 9.76492 7.62119 10.3886C7.59193 11.0122 7.58608 11.2106 7.58608 12.8001C7.58608 14.3897 7.59369 14.588 7.62119 15.2117C7.65044 15.8347 7.74814 16.2595 7.89323 16.6321C8.04004 17.0226 8.27023 17.3764 8.56778 17.6688C8.86003 17.9666 9.21386 18.1968 9.60448 18.3434C9.97773 18.4879 10.4019 18.5862 11.025 18.6154C11.6486 18.6447 11.8469 18.6505 13.4365 18.6505C15.0261 18.6505 15.2244 18.6429 15.848 18.6154C16.4711 18.5862 16.8958 18.4879 17.2685 18.3434C17.6589 18.1964 18.0127 17.9662 18.3052 17.6688C18.6031 17.3767 18.8333 17.0228 18.9798 16.6321C19.1243 16.2589 19.2226 15.8347 19.2518 15.2117C19.2811 14.588 19.2869 14.3897 19.2869 12.8001C19.2869 11.2106 19.2793 11.0122 19.2518 10.3886C19.2226 9.76551 19.1243 9.34077 18.9798 8.9681C18.8329 8.57763 18.6027 8.22386 18.3052 7.9314C17.9799 7.60671 17.6546 7.40545 17.2685 7.25685C16.8953 7.11176 16.4711 7.01406 15.848 6.98481ZM11.3681 10.7317C11.9166 10.1831 12.6607 9.87491 13.4365 9.87491C14.2123 9.87491 14.9563 10.1831 15.5049 10.7317C16.0535 11.2803 16.3617 12.0243 16.3617 12.8001C16.3617 13.5759 16.0535 14.32 15.5049 14.8685C14.9563 15.4171 14.2123 15.7253 13.4365 15.7253C12.6607 15.7253 11.9166 15.4171 11.3681 14.8685C10.8195 14.32 10.5113 13.5759 10.5113 12.8001C10.5113 12.0243 10.8195 11.2803 11.3681 10.7317ZM17.0251 9.21154C17.1622 9.34869 17.2393 9.5347 17.2393 9.72865C17.2393 9.9226 17.1622 10.1086 17.0251 10.2458C16.8879 10.3829 16.7019 10.46 16.508 10.46C16.314 10.46 16.128 10.3829 15.9909 10.2458C15.8537 10.1086 15.7767 9.9226 15.7767 9.72865C15.7767 9.5347 15.8537 9.34869 15.9909 9.21154C16.128 9.0744 16.314 8.99735 16.508 8.99735C16.7019 8.99735 16.8879 9.0744 17.0251 9.21154ZM14.6776 11.5591C14.3484 11.2299 13.902 11.045 13.4365 11.045C12.971 11.045 12.5246 11.2299 12.1954 11.5591C11.8663 11.8882 11.6814 12.3346 11.6814 12.8001C11.6814 13.2656 11.8663 13.712 12.1954 14.0412C12.5246 14.3703 12.971 14.5552 13.4365 14.5552C13.902 14.5552 14.3484 14.3703 14.6776 14.0412C15.0067 13.712 15.1916 13.2656 15.1916 12.8001C15.1916 12.3346 15.0067 11.8882 14.6776 11.5591Z" fill="#CECDD2"/>
</svg>
