<svg width="351" height="223" viewBox="0 0 351 223" fill="none" xmlns="http://www.w3.org/2000/svg">
<g filter="url(#filter0_d_105_761)">
<g clip-path="url(#clip0_105_761)">
<rect x="4.19336" y="0.110718" width="342" height="214" rx="15" fill="#242529"/>
<path d="M57.3818 228.127L316.404 -18.6053L304.168 -31.4514L45.1453 215.281L57.3818 228.127Z" fill="url(#paint0_linear_105_761)" fill-opacity="0.9"/>
<path d="M72.7353 236.832L331.758 -9.90051L328.407 -13.4187L69.3841 233.313L72.7353 236.832Z" fill="url(#paint1_linear_105_761)" fill-opacity="0.9"/>
<path d="M177.551 217.2L349.553 53.3594L346.202 49.8413L174.199 213.682L177.551 217.2Z" fill="url(#paint2_linear_105_761)" fill-opacity="0.9"/>
<path d="M143.457 227.494L358.483 22.672L346.712 10.3149L131.687 215.137L143.457 227.494Z" fill="url(#paint3_linear_105_761)" fill-opacity="0.9"/>
</g>
</g>
<defs>
<filter id="filter0_d_105_761" x="0.193359" y="0.110718" width="350" height="222" filterUnits="userSpaceOnUse" color-interpolation-filters="sRGB">
<feFlood flood-opacity="0" result="BackgroundImageFix"/>
<feColorMatrix in="SourceAlpha" type="matrix" values="0 0 0 0 0 0 0 0 0 0 0 0 0 0 0 0 0 0 127 0" result="hardAlpha"/>
<feOffset dy="4"/>
<feGaussianBlur stdDeviation="2"/>
<feComposite in2="hardAlpha" operator="out"/>
<feColorMatrix type="matrix" values="0 0 0 0 0.920833 0 0 0 0 0.920833 0 0 0 0 0.920833 0 0 0 1 0"/>
<feBlend mode="normal" in2="BackgroundImageFix" result="effect1_dropShadow_105_761"/>
<feBlend mode="normal" in="SourceGraphic" in2="effect1_dropShadow_105_761" result="shape"/>
</filter>
<linearGradient id="paint0_linear_105_761" x1="250.97" y1="125.083" x2="239.2" y2="112.726" gradientUnits="userSpaceOnUse">
<stop stop-color="#202020"/>
<stop offset="1" stop-color="#444445" stop-opacity="0.41"/>
</linearGradient>
<linearGradient id="paint1_linear_105_761" x1="250.97" y1="125.083" x2="239.2" y2="112.726" gradientUnits="userSpaceOnUse">
<stop stop-color="#202020"/>
<stop offset="1" stop-color="#444445" stop-opacity="0.41"/>
</linearGradient>
<linearGradient id="paint2_linear_105_761" x1="250.97" y1="125.083" x2="239.2" y2="112.726" gradientUnits="userSpaceOnUse">
<stop stop-color="#202020"/>
<stop offset="1" stop-color="#444445" stop-opacity="0.41"/>
</linearGradient>
<linearGradient id="paint3_linear_105_761" x1="250.97" y1="125.083" x2="239.2" y2="112.726" gradientUnits="userSpaceOnUse">
<stop stop-color="#202020"/>
<stop offset="1" stop-color="#444445" stop-opacity="0.41"/>
</linearGradient>
<clipPath id="clip0_105_761">
<rect x="4.19336" y="0.110718" width="342" height="214" rx="15" fill="white"/>
</clipPath>
</defs>
</svg>
