<svg width="27" height="26" viewBox="0 0 27 26" fill="none" xmlns="http://www.w3.org/2000/svg">
<path d="M13.429 0.0671387C6.39658 0.0671387 0.695801 5.76792 0.695801 12.8004C0.695801 19.8329 6.39658 25.5336 13.429 25.5336C20.4615 25.5336 26.1623 19.8329 26.1623 12.8004C26.1623 5.76792 20.4615 0.0671387 13.429 0.0671387ZM10.3121 18.0781H7.73357V9.78022H10.3121V18.0781ZM9.0069 8.76156C8.1925 8.76156 7.66593 8.18458 7.66593 7.47099C7.66593 6.74281 8.20842 6.18308 9.04006 6.18308C9.8717 6.18308 10.381 6.74281 10.3969 7.47099C10.3969 8.18458 9.8717 8.76156 9.0069 8.76156ZM19.7294 18.0781H17.1509V13.4795C17.1509 12.4091 16.7768 11.6822 15.8444 11.6822C15.1321 11.6822 14.709 12.1743 14.522 12.6479C14.453 12.8163 14.4358 13.0551 14.4358 13.2925V18.0767H11.856V12.4263C11.856 11.3904 11.8228 10.5243 11.7883 9.77889H14.0286L14.1466 10.9315H14.1983C14.5379 10.3904 15.3695 9.59187 16.7609 9.59187C18.4574 9.59187 19.7294 10.7286 19.7294 13.1718V18.0781Z" fill="#CECDD2"/>
</svg>
