<svg width="56" height="55" viewBox="0 0 56 55" fill="none" xmlns="http://www.w3.org/2000/svg">
<rect x="0.227051" y="0.391113" width="55" height="54" rx="27" fill="#F7911E"/>
<path fill-rule="evenodd" clip-rule="evenodd" d="M22.9866 19.8526H32.4674C32.9135 19.8526 33.3039 19.4757 33.3039 19.045V16.6219C33.3039 15.4373 32.3001 14.468 31.0731 14.468H24.3808C23.1539 14.468 22.1501 15.4373 22.1501 16.6219V19.045C22.1501 19.4757 22.5405 19.8526 22.9866 19.8526ZM37.7655 16.6219H36.3712C35.9251 16.6219 35.5347 16.9988 35.5347 17.4296V19.8526C35.5347 21.0373 34.5308 22.0065 33.3039 22.0065H22.1501C20.9231 22.0065 19.9193 21.0373 19.9193 19.8526V17.4296C19.9193 16.9988 19.5289 16.6219 19.0828 16.6219H17.6885C16.4616 16.6219 15.4578 17.5911 15.4578 18.7757V38.1603C15.4578 39.345 16.4616 40.3142 17.6885 40.3142H37.7655C38.9924 40.3142 39.9962 39.345 39.9962 38.1603V18.7757C39.9962 17.5911 38.9924 16.6219 37.7655 16.6219ZM34.4193 35.468C34.4193 35.7911 34.1962 36.0065 33.8616 36.0065H21.5924C21.2578 36.0065 21.0347 35.7911 21.0347 35.468V34.3911C21.0347 34.068 21.2578 33.8526 21.5924 33.8526H33.8616C34.1962 33.8526 34.4193 34.068 34.4193 34.3911V35.468ZM34.4193 31.1603C34.4193 31.4834 34.1962 31.6988 33.8616 31.6988H21.5924C21.2578 31.6988 21.0347 31.4834 21.0347 31.1603V30.0834C21.0347 29.7603 21.2578 29.545 21.5924 29.545H33.8616C34.1962 29.545 34.4193 29.7603 34.4193 30.0834V31.1603ZM34.4193 26.8526C34.4193 27.1757 34.1962 27.3911 33.8616 27.3911H21.5924C21.2578 27.3911 21.0347 27.1757 21.0347 26.8526V25.7757C21.0347 25.4526 21.2578 25.2373 21.5924 25.2373H33.8616C34.1962 25.2373 34.4193 25.4526 34.4193 25.7757V26.8526Z" fill="white"/>
</svg>
