<svg width="56" height="55" viewBox="0 0 56 55" fill="none" xmlns="http://www.w3.org/2000/svg">
<rect x="0.227051" y="0.00939941" width="55" height="54" rx="27" fill="#AECD63"/>
<path fill-rule="evenodd" clip-rule="evenodd" d="M22.9866 19.4709H32.4674C32.9135 19.4709 33.3039 19.094 33.3039 18.6633V16.2402C33.3039 15.0556 32.3001 14.0863 31.0731 14.0863H24.3808C23.1539 14.0863 22.1501 15.0556 22.1501 16.2402V18.6633C22.1501 19.094 22.5405 19.4709 22.9866 19.4709ZM37.7655 16.2402H36.3712C35.9251 16.2402 35.5347 16.6171 35.5347 17.0479V19.4709C35.5347 20.6556 34.5308 21.6248 33.3039 21.6248H22.1501C20.9231 21.6248 19.9193 20.6556 19.9193 19.4709V17.0479C19.9193 16.6171 19.5289 16.2402 19.0828 16.2402H17.6885C16.4616 16.2402 15.4578 17.2094 15.4578 18.394V37.7786C15.4578 38.9633 16.4616 39.9325 17.6885 39.9325H37.7655C38.9924 39.9325 39.9962 38.9633 39.9962 37.7786V18.394C39.9962 17.2094 38.9924 16.2402 37.7655 16.2402ZM34.4193 35.0863C34.4193 35.4094 34.1962 35.6248 33.8616 35.6248H21.5924C21.2578 35.6248 21.0347 35.4094 21.0347 35.0863V34.0094C21.0347 33.6863 21.2578 33.4709 21.5924 33.4709H33.8616C34.1962 33.4709 34.4193 33.6863 34.4193 34.0094V35.0863ZM34.4193 30.7786C34.4193 31.1017 34.1962 31.3171 33.8616 31.3171H21.5924C21.2578 31.3171 21.0347 31.1017 21.0347 30.7786V29.7017C21.0347 29.3786 21.2578 29.1633 21.5924 29.1633H33.8616C34.1962 29.1633 34.4193 29.3786 34.4193 29.7017V30.7786ZM34.4193 26.4709C34.4193 26.794 34.1962 27.0094 33.8616 27.0094H21.5924C21.2578 27.0094 21.0347 26.794 21.0347 26.4709V25.394C21.0347 25.0709 21.2578 24.8556 21.5924 24.8556H33.8616C34.1962 24.8556 34.4193 25.0709 34.4193 25.394V26.4709Z" fill="white"/>
</svg>
