<svg width="350" height="223" viewBox="0 0 350 223" fill="none" xmlns="http://www.w3.org/2000/svg">
<g filter="url(#filter0_d_45_332)">
<g clip-path="url(#clip0_45_332)">
<rect x="4" y="0.110718" width="342" height="214" rx="15" fill="#571111"/>
<path d="M350.698 81.2621C350.698 166.334 281.733 235.299 196.661 235.299C111.589 235.299 42.6244 166.334 42.6244 81.2621C42.6244 -3.81013 111.589 -72.7748 196.661 -72.7748C281.733 -72.7748 350.698 -3.81013 350.698 81.2621Z" fill="url(#paint0_angular_45_332)"/>
<path d="M366.52 95.7657C366.52 180.838 297.555 249.803 212.483 249.803C127.411 249.803 58.4462 180.838 58.4462 95.7657C58.4462 10.6935 127.411 -58.2711 212.483 -58.2711C297.555 -58.2711 366.52 10.6935 366.52 95.7657Z" fill="url(#paint1_angular_45_332)"/>
<path d="M380.068 118.977C380.068 204.049 311.103 273.014 226.031 273.014C140.959 273.014 71.994 204.049 71.994 118.977C71.994 33.9045 140.959 -35.0602 226.031 -35.0602C311.103 -35.0602 380.068 33.9045 380.068 118.977Z" fill="url(#paint2_angular_45_332)" fill-opacity="0.7"/>
<path d="M411.937 120.053C411.937 205.125 342.973 274.09 257.9 274.09C172.828 274.09 103.864 205.125 103.864 120.053C103.864 34.9809 172.828 -33.9838 257.9 -33.9838C342.973 -33.9838 411.937 34.9809 411.937 120.053Z" fill="url(#paint3_angular_45_332)" fill-opacity="0.5"/>
</g>
</g>
<defs>
<filter id="filter0_d_45_332" x="0" y="0.110718" width="350" height="222" filterUnits="userSpaceOnUse" color-interpolation-filters="sRGB">
<feFlood flood-opacity="0" result="BackgroundImageFix"/>
<feColorMatrix in="SourceAlpha" type="matrix" values="0 0 0 0 0 0 0 0 0 0 0 0 0 0 0 0 0 0 127 0" result="hardAlpha"/>
<feOffset dy="4"/>
<feGaussianBlur stdDeviation="2"/>
<feComposite in2="hardAlpha" operator="out"/>
<feColorMatrix type="matrix" values="0 0 0 0 0.920833 0 0 0 0 0.920833 0 0 0 0 0.920833 0 0 0 1 0"/>
<feBlend mode="normal" in2="BackgroundImageFix" result="effect1_dropShadow_45_332"/>
<feBlend mode="normal" in="SourceGraphic" in2="effect1_dropShadow_45_332" result="shape"/>
</filter>
<radialGradient id="paint0_angular_45_332" cx="0" cy="0" r="1" gradientUnits="userSpaceOnUse" gradientTransform="translate(227.281 117.47) rotate(136.887) scale(229.166 228.67)">
<stop stop-color="#762921"/>
<stop offset="1" stop-color="#762921" stop-opacity="0"/>
</radialGradient>
<radialGradient id="paint1_angular_45_332" cx="0" cy="0" r="1" gradientUnits="userSpaceOnUse" gradientTransform="translate(227.281 117.47) rotate(136.887) scale(229.166 228.67)">
<stop stop-color="#762921"/>
<stop offset="1" stop-color="#762921" stop-opacity="0"/>
</radialGradient>
<radialGradient id="paint2_angular_45_332" cx="0" cy="0" r="1" gradientUnits="userSpaceOnUse" gradientTransform="translate(227.281 117.47) rotate(136.887) scale(229.166 228.67)">
<stop stop-color="#762921"/>
<stop offset="1" stop-color="#762921" stop-opacity="0"/>
</radialGradient>
<radialGradient id="paint3_angular_45_332" cx="0" cy="0" r="1" gradientUnits="userSpaceOnUse" gradientTransform="translate(257.901 134.985) rotate(135.092) scale(197.041 197.041)">
<stop stop-color="#762921"/>
<stop offset="1" stop-color="#762921" stop-opacity="0"/>
</radialGradient>
<clipPath id="clip0_45_332">
<rect x="4" y="0.110718" width="342" height="214" rx="15" fill="white"/>
</clipPath>
</defs>
</svg>
