<svg width="27" height="26" viewBox="0 0 27 26" fill="none" xmlns="http://www.w3.org/2000/svg">
<path d="M13.1788 0.0671387C6.007 0.0671387 0.191895 5.76868 0.191895 12.8004C0.191895 19.8321 6.007 25.5336 13.1788 25.5336C20.3505 25.5336 26.1656 19.8321 26.1656 12.8004C26.1656 5.76868 20.3505 0.0671387 13.1788 0.0671387ZM19.42 9.66539C19.4287 9.79898 19.4287 9.93825 19.4287 10.0747C19.4287 14.2471 16.1878 19.0533 10.2654 19.0533C8.43914 19.0533 6.74621 18.5332 5.31997 17.6379C5.58087 17.6663 5.83017 17.6777 6.09686 17.6777C7.60427 17.6777 8.98992 17.1774 10.0944 16.3305C8.67974 16.302 7.49121 15.3925 7.08537 14.1419C7.58108 14.213 8.0275 14.213 8.5377 14.0851C7.80929 13.94 7.15458 13.5521 6.6848 12.9874C6.21501 12.4226 5.95913 11.7158 5.96062 10.987V10.9472C6.38675 11.1831 6.88825 11.3281 7.41294 11.348C6.97186 11.0598 6.61013 10.6693 6.35982 10.2112C6.10952 9.75307 5.97837 9.24148 5.97801 8.72177C5.97801 8.13342 6.13455 7.59624 6.41574 7.13011C7.22424 8.10596 8.23312 8.90407 9.37682 9.47259C10.5205 10.0411 11.7734 10.3673 13.0541 10.43C12.599 8.28406 14.234 6.54745 16.1994 6.54745C17.127 6.54745 17.9619 6.92831 18.5503 7.54224C19.278 7.40865 19.9737 7.14148 20.594 6.78336C20.3534 7.51381 19.849 8.13058 19.1794 8.51997C19.8287 8.45175 20.4549 8.27554 21.0347 8.02826C20.5969 8.65924 20.0491 9.21916 19.42 9.66539Z" fill="#CECDD2"/>
</svg>
