<svg width="26" height="26" viewBox="0 0 26 26" fill="none" xmlns="http://www.w3.org/2000/svg">
<path d="M15.0589 12.5789L12.0798 11.1888C11.8199 11.0681 11.6063 11.2034 11.6063 11.4912V14.1095C11.6063 14.3973 11.8199 14.5326 12.0798 14.4119L15.0576 13.0219C15.3189 12.8999 15.3189 12.7009 15.0589 12.5789ZM12.9327 0.0671387C5.90024 0.0671387 0.199463 5.76792 0.199463 12.8004C0.199463 19.8329 5.90024 25.5336 12.9327 25.5336C19.9652 25.5336 25.666 19.8329 25.666 12.8004C25.666 5.76792 19.9652 0.0671387 12.9327 0.0671387ZM12.9327 17.9733C6.41488 17.9733 6.30081 17.3857 6.30081 12.8004C6.30081 8.21509 6.41488 7.6275 12.9327 7.6275C19.4505 7.6275 19.5646 8.21509 19.5646 12.8004C19.5646 17.3857 19.4505 17.9733 12.9327 17.9733Z" fill="#CECDD2"/>
</svg>
